<svg xmlns="http://www.w3.org/2000/svg" xmlns:xlink="http://www.w3.org/1999/xlink" xmlns:lucid="lucid" width="1600" height="1160"><g transform="translate(-160 -100)" lucid:page-tab-id="0_0"><path d="M0 0h1870.4v1323.2H0z" fill="#fff"/><path d="M1610 140c16.57 0 30 13.43 30 30v970c0 16.57-13.43 30-30 30h-560c-16.57 0-30-13.43-30-30V170c0-16.57 13.43-30 30-30z" stroke="#000" stroke-width="2" fill="#c1e4f7"/><path d="M1228.44 1092.67h208.82v66.28h-208.82z" stroke="#000" stroke-opacity="0" stroke-width="2" fill="#fff" fill-opacity="0"/><use xlink:href="#a" transform="matrix(1,0,0,1,1233.4443312101912,1097.6744186046512) translate(5.349999999999994 32.2125)"/><use xlink:href="#b" transform="matrix(1,0,0,1,1233.4443312101912,1097.6744186046512) translate(80.8 32.2125)"/><use xlink:href="#c" transform="matrix(1,0,0,1,1233.4443312101912,1097.6744186046512) translate(141.79999999999998 32.2125)"/><path d="M1575 968.37c16.58 0 30 13.43 30 30v72.56c0 16.57-13.42 30-30 30h-479.43c-16.57 0-30-13.43-30-30v-72.56c0-16.57 13.43-30 30-30z" stroke="#000" stroke-width="2" fill="#19967d"/><path d="M1227.4 968.37h215.78v44.2H1227.4z" stroke="#000" stroke-opacity="0" stroke-width="2" fill="#19967d"/><use xlink:href="#d" transform="matrix(1,0,0,1,1232.4002547770701,973.3720930232558) translate(48.611111111111114 22.5625)"/><path d="M1119.5 1012.56h107.9v66.28h-107.9z" stroke="#000" stroke-width="2" fill="#99d5ca"/><use xlink:href="#e" transform="matrix(1,0,0,1,1124.5123566878983,1017.5581395348838) translate(31.099999999999998 32.2125)"/><path d="M1281.34 1012.56h107.9v66.28h-107.9z" stroke="#000" stroke-width="2" fill="#99d5ca"/><use xlink:href="#f" transform="matrix(1,0,0,1,1286.3442038216563,1017.5581395348838) translate(24.749999999999996 32.2125)"/><path d="M1456.84 1012.56h107.9v66.28h-107.9z" stroke="#000" stroke-width="2" fill="#99d5ca"/><use xlink:href="#g" transform="matrix(1,0,0,1,1461.841851380001,1017.5581395348838) translate(35.025 32.2125)"/><path d="M1578.5 880c16.56 0 30 13.43 30 30v28.37c0 16.57-13.44 30-30 30h-482.93c-16.57 0-30-13.43-30-30V910c0-16.57 13.43-30 30-30z" stroke="#000" stroke-width="2" fill="#5abaa7"/><path d="M1231.95 897.67h210.16v53.03h-210.15z" stroke="#000" stroke-opacity="0" stroke-width="2" fill="#5abaa7"/><use xlink:href="#h" transform="matrix(1,0,0,1,1236.9470392438875,902.6744186046511) translate(37.30555555555556 27)"/><use xlink:href="#i" transform="matrix(1,0,0,1,1236.9470392438875,902.6744186046511) translate(121.58333333333334 27)"/><path d="M822.95 1026.4l36.8-36.8v18.4H977.5v-18.4l36.82 36.8-36.8 36.8v-18.4H859.74v18.4z" stroke="#000" stroke-width="2" fill="#fff"/><use xlink:href="#g" transform="matrix(1,0,0,1,827.9453644727886,994.5930232558142) translate(77.03 34.4)"/><path d="M1575 712.33c16.58 0 30 13.43 30 30v28.37c0 16.57-13.42 30-30 30h-482.9c-16.58 0-30-13.43-30-30v-28.37c0-16.57 13.42-30 30-30z" stroke="#000" stroke-width="2" fill="#c7e8ac"/><path d="M1233.6 723.37h210.15v66.28H1233.6z" stroke="#000" stroke-opacity="0" stroke-width="2" fill="#c7e8ac"/><use xlink:href="#j" transform="matrix(1,0,0,1,1238.589494966098,728.3720930232558) translate(0.36111111111111427 33.8125)"/><use xlink:href="#k" transform="matrix(1,0,0,1,1238.589494966098,728.3720930232558) translate(107.97222222222221 33.8125)"/><path d="M1572.57 248.37c16.57 0 30 13.43 30 30v403.96c0 16.56-13.43 30-30 30h-479.44c-16.57 0-30-13.44-30-30V278.37c0-16.57 13.43-30 30-30z" stroke="#000" stroke-width="2" fill="#ffeca9"/><path d="M1557.26 270.47c16.57 0 30 13.43 30 30v72.55c0 16.57-13.43 30-30 30h-446.73c-16.57 0-30-13.43-30-30v-72.55c0-16.57 13.43-30 30-30z" stroke="#000" stroke-width="2" fill="#ffc374"/><path d="M1255.6 270.47h156.6v66.27h-156.6z" stroke="#000" stroke-opacity="0" stroke-width="2" fill="#fff" fill-opacity="0"/><use xlink:href="#l" transform="matrix(1,0,0,1,1260.5903184713377,275.4651162790698) translate(35.575 32.2125)"/><use xlink:href="#m" transform="matrix(1,0,0,1,1260.5903184713377,275.4651162790698) translate(81.475 32.2125)"/><path d="M1094.2 326.8h111.62v37.56H1094.2z" stroke="#000" stroke-width="2" fill="#fcc438"/><use xlink:href="#n" transform="matrix(1,0,0,1,1099.1935031847133,331.8023255813954) translate(9.216049382716044 17.694444444444446)"/><path d="M1215.13 326.8h127.03v37.56h-127.03z" stroke="#000" stroke-width="2" fill="#fcc438"/><use xlink:href="#o" transform="matrix(1,0,0,1,1220.1323566878982,331.8023255813954) translate(11.533950617283956 17.694444444444446)"/><path d="M1348.25 326.8h127.03v37.56h-127.03z" stroke="#000" stroke-width="2" fill="#fcc438"/><use xlink:href="#p" transform="matrix(1,0,0,1,1353.2521019108283,331.8023255813954) translate(-0.8888888888888857 17.11111111111111)"/><path d="M1480.5 326.8h98.32v37.56h-98.32z" stroke="#000" stroke-width="2" fill="#fcc438"/><use xlink:href="#q" transform="matrix(1,0,0,1,1485.5017834394907,331.8023255813954) translate(18.16358024691358 17.694444444444446)"/><path d="M1556.9 404c16.58 0 30 13.43 30 30v94.65c0 16.57-13.42 30-30 30h-446.7c-16.58 0-30-13.43-30-30V434c0-16.57 13.42-30 30-30z" stroke="#000" stroke-width="2" fill="#ffc374"/><path d="M1269.16 410.63h156.6v39.77h-156.6z" stroke="#000" stroke-opacity="0" stroke-width="2" fill="#ffc374"/><use xlink:href="#r" transform="matrix(1,0,0,1,1274.1633121019106,415.62790697674416) translate(14.099999999999994 18.15)"/><use xlink:href="#s" transform="matrix(1,0,0,1,1274.1633121019106,415.62790697674416) translate(69 18.15)"/><path d="M1168.06 453.27h174v39.1h-174z" stroke="#000" stroke-width="2" fill="#fcc438"/><use xlink:href="#t" transform="matrix(1,0,0,1,1173.0619108280255,458.2674418604649) translate(30.712962962962962 18.069444444444446)"/><use xlink:href="#u" transform="matrix(1,0,0,1,1173.0619108280255,458.2674418604649) translate(83.3425925925926 18.069444444444446)"/><path d="M1358.6 452.83h156.62v39.1h-156.6z" stroke="#000" stroke-width="2" fill="#fcc438"/><use xlink:href="#v" transform="matrix(1,0,0,1,1363.6058598726115,457.8255813953488) translate(9.614197530864189 18.069444444444446)"/><use xlink:href="#w" transform="matrix(1,0,0,1,1363.6058598726115,457.8255813953488) translate(63.15123456790123 18.069444444444446)"/><path d="M1167.2 499h348.02v37.56H1167.2z" stroke="#000" stroke-width="2" fill="#fcc438"/><use xlink:href="#x" transform="matrix(1,0,0,1,1172.191847133758,504.00000000000006) translate(125.53395061728395 17.694444444444446)"/><use xlink:href="#y" transform="matrix(1,0,0,1,1172.191847133758,504.00000000000006) translate(172.15740740740742 17.694444444444446)"/><path d="M1555 560c16.56 0 30 13.43 30 30v72c0 16.56-13.44 30-30 30h-446.73c-16.57 0-30-13.44-30-30v-72c0-16.57 13.43-30 30-30z" stroke="#000" stroke-width="2" fill="#ffc374"/><path d="M1233.53 560.2h213.26v50.16h-213.27z" stroke="#000" stroke-opacity="0" stroke-width="2" fill="#ffc374"/><use xlink:href="#z" transform="matrix(1,0,0,1,1238.534203821656,565.2075738529227) translate(34.099999999999994 14.4)"/><use xlink:href="#A" transform="matrix(1,0,0,1,1238.534203821656,565.2075738529227) translate(62.574999999999996 36)"/><path d="M1166.15 607.14h348.02v32.06h-348.02z" stroke="#000" stroke-width="2" fill="#fcc438"/><use xlink:href="#B" transform="matrix(1,0,0,1,1171.147770700637,612.1401634192331) translate(79.34259259259258 15.319444444444446)"/><use xlink:href="#C" transform="matrix(1,0,0,1,1171.147770700637,612.1401634192331) translate(183.73765432098764 15.319444444444446)"/><path d="M1165.28 644.85h348.02v32.06h-348.02z" stroke="#000" stroke-width="2" fill="#fcc438"/><use xlink:href="#D" transform="matrix(1,0,0,1,1170.2777070063694,649.8522941546197) translate(113.43518518518519 15.319444444444446)"/><use xlink:href="#y" transform="matrix(1,0,0,1,1170.2777070063694,649.8522941546197) translate(184.25617283950618 15.319444444444446)"/><path d="M1575 160c16.58 0 30 13.43 30 30v28.37c0 16.57-13.42 30-30 30h-482.9c-16.58 0-30-13.43-30-30V190c0-16.57 13.42-30 30-30z" stroke="#000" stroke-width="2" fill="#ffbbb1"/><path d="M1231.95 171.05h210.16v66.28h-210.15z" stroke="#000" stroke-opacity="0" stroke-width="2" fill="#ffbbb1"/><use xlink:href="#E" transform="matrix(1,0,0,1,1236.9470392438875,176.04651162790705) translate(48.99999999999999 33.8125)"/><path d="M180 120h1560v1120H180z" fill="#fff" fill-opacity="0"/><path d="M191.94 120h7.96m7.96 0h7.96m7.96 0h7.95m7.96 0h7.95m7.96 0h7.97m7.96 0h7.96m7.95 0h7.96m7.97 0h7.96m7.96 0h7.94m7.96 0h7.96m7.96 0h7.96m7.96 0H375m7.96 0h7.96m7.96 0h7.96m7.96 0h7.96m7.95 0h7.97m7.96 0h7.96m7.95 0h7.96m7.97 0h7.96m7.96 0h7.95m7.96 0h7.97m7.95 0h7.96m7.96 0h7.96m7.96 0h7.96m7.96 0h7.96m7.96 0h7.96m7.96 0h7.96m7.95 0h7.96m7.95 0h7.96m7.97 0h7.96m7.96 0h7.95m7.96 0h7.97m7.96 0h7.96m7.94 0h7.96m7.96 0h7.96m7.96 0h7.96m7.96 0h7.96m7.96 0h7.96m7.96 0h7.96m7.96 0h7.95m7.97 0h7.96m7.96 0h7.95m7.96 0h7.97m7.96 0h7.96m7.95 0h7.96m7.97 0h7.95m7.96 0h7.96m7.96 0h7.96m7.96 0h7.96m7.96 0h7.96m7.96 0h7.96m7.96 0h7.95m7.96 0h7.95m7.96 0h7.97m7.96 0h7.96m7.95 0h7.96m7.97 0h7.96m7.96 0h7.94m7.96 0h7.96m7.96 0h7.96m7.96 0h7.96m7.96 0h7.96m7.96 0h7.96m7.96 0h7.96m7.95 0h7.97m7.96 0h7.96m7.95 0h7.96m7.97 0h7.96m7.96 0h7.95m7.96 0h7.97m7.95 0h7.96m7.96 0h7.96m7.96 0h7.96m7.96 0h7.96m7.96 0h7.96m7.96 0h7.96m7.95 0h7.96m7.95 0h7.96m7.97 0h7.96m7.96 0h7.95m7.96 0h7.97m7.96 0h7.96m7.94 0h7.96m7.96 0h7.96m7.96 0h7.96m7.96 0h7.96m7.96 0h7.96m7.96 0h7.96m7.96 0h7.95m7.97 0h7.96m7.96 0h7.95m7.96 0h7.97m7.96 0h7.96m7.95 0h7.96m7.97 0h7.95m7.96 0h7.96m7.96 0h7.96m7.96 0h3.98v4m0 8v8m0 8v8m0 8v8m0 8v8m0 8v8m0 8v8m0 8v8m0 8v8m0 8v8m0 8v8m0 8v8m0 8v8m0 8v8m0 8v8m0 8v8m0 8v8m0 8v8m0 8v8m0 8v8m0 8v8m0 8v8m0 8v8m0 8v8m0 8v8m0 8v8m0 8v8m0 8v8m0 8v8m0 8v8m0 8v8m0 8v8m0 8v8m0 8v8m0 8v8m0 8v8m0 8v8m0 8v8m0 8v8m0 8v8m0 8v8m0 8v8m0 8v8m0 8v8m0 8v8m0 8v8m0 8v8m0 8v8m0 8v8m0 8v8m0 8v8m0 8v8m0 8v8m0 8v8m0 8v8m0 8v8m0 8v8m0 8v8m0 8v8m0 8v8m0 8v8m0 8v8m0 8v8m0 8v8m0 8v8m0 8v8m0 8v8m0 8v8m0 8v8m0 8v8m0 8v4h-3.98m-7.96 0h-7.96m-7.96 0h-7.96m-7.96 0h-7.95m-7.96 0h-7.95m-7.96 0h-7.97m-7.96 0h-7.96m-7.95 0h-7.96m-7.97 0h-7.96m-7.96 0h-7.94m-7.96 0h-7.96m-7.96 0h-7.96m-7.96 0H1545m-7.96 0h-7.96m-7.96 0h-7.96m-7.96 0h-7.96m-7.95 0h-7.97m-7.96 0h-7.96m-7.95 0h-7.96m-7.97 0h-7.96m-7.96 0h-7.95m-7.96 0h-7.97m-7.95 0h-7.96m-7.96 0h-7.96m-7.96 0h-7.96m-7.96 0h-7.96m-7.96 0h-7.96m-7.96 0h-7.96m-7.95 0h-7.96m-7.95 0h-7.96m-7.97 0h-7.96m-7.96 0h-7.95m-7.96 0h-7.97m-7.96 0h-7.96m-7.94 0h-7.96m-7.96 0h-7.96m-7.96 0h-7.96m-7.96 0h-7.96m-7.96 0h-7.96m-7.96 0h-7.96m-7.96 0h-7.95m-7.97 0h-7.96m-7.96 0h-7.95m-7.96 0h-7.97m-7.96 0h-7.96m-7.95 0h-7.96m-7.97 0h-7.95m-7.96 0h-7.96m-7.96 0h-7.96m-7.96 0h-7.96m-7.96 0h-7.96m-7.96 0h-7.96m-7.96 0h-7.95m-7.96 0h-7.95m-7.96 0h-7.97m-7.96 0h-7.96m-7.95 0h-7.96m-7.97 0h-7.96m-7.96 0h-7.94m-7.96 0h-7.96m-7.96 0h-7.96m-7.96 0H765m-7.96 0h-7.96m-7.96 0h-7.96m-7.96 0h-7.96m-7.95 0h-7.97m-7.96 0h-7.96m-7.95 0h-7.96m-7.97 0h-7.96m-7.96 0h-7.95m-7.96 0h-7.97m-7.95 0h-7.96m-7.96 0h-7.96m-7.96 0h-7.96m-7.96 0h-7.96m-7.96 0h-7.96m-7.96 0h-7.96m-7.95 0h-7.96m-7.95 0h-7.96m-7.97 0h-7.96m-7.96 0h-7.95m-7.96 0h-7.97m-7.96 0h-7.96m-7.94 0h-7.96m-7.96 0h-7.96m-7.96 0h-7.96m-7.96 0h-7.96m-7.96 0h-7.96m-7.96 0h-7.96m-7.96 0h-7.95m-7.97 0h-7.96m-7.96 0h-7.95m-7.96 0h-7.97m-7.96 0h-7.96m-7.95 0h-7.96m-7.97 0h-7.95m-7.96 0h-7.96m-7.96 0h-7.96m-7.96 0H180v-4m0-8v-8m0-8v-8m0-8v-8m0-8v-8m0-8v-8m0-8v-8m0-8v-8m0-8v-8m0-8v-8m0-8v-8m0-8v-8m0-8v-8m0-8v-8m0-8v-8m0-8v-8m0-8v-8m0-8v-8m0-8v-8m0-8v-8m0-8v-8m0-8v-8m0-8v-8m0-8v-8m0-8v-8m0-8v-8m0-8v-8m0-8v-8m0-8v-8m0-8v-8m0-8v-8m0-8v-8m0-8v-8m0-8v-8m0-8v-8m0-8v-8m0-8v-8m0-8v-8m0-8v-8m0-8v-8m0-8v-8m0-8v-8m0-8v-8m0-8v-8m0-8v-8m0-8v-8m0-8v-8m0-8v-8m0-8v-8m0-8v-8m0-8v-8m0-8v-8m0-8v-8m0-8v-8m0-8v-8m0-8v-8m0-8v-8m0-8v-8m0-8v-8m0-8v-8m0-8v-8m0-8v-8m0-8v-8m0-8v-8m0-8v-8m0-8v-8m0-8v-8m0-8v-8m0-8v-8m0-8v-8m0-8v-4h3.98" stroke="#5a6c86" stroke-width="2" fill="none"/><path d="M224.55 160h340v160h-340z" stroke="#000" stroke-opacity="0" stroke-width="2" fill="#fff" fill-opacity="0"/><use xlink:href="#F" transform="matrix(1,0,0,1,229.5534540554699,165) translate(6.018518518518533 63.520833333333336)"/><use xlink:href="#G" transform="matrix(1,0,0,1,229.5534540554699,165) translate(75.64814814814817 63.520833333333336)"/><use xlink:href="#H" transform="matrix(1,0,0,1,229.5534540554699,165) translate(209.72222222222223 63.520833333333336)"/><use xlink:href="#I" transform="matrix(1,0,0,1,229.5534540554699,165) translate(129.98148148148147 95.52083333333334)"/><path d="M787.26 780c16.57 0 30 13.43 30 30v330c0 16.57-13.43 30-30 30H370c-16.57 0-30-13.43-30-30V810c0-16.57 13.43-30 30-30z" stroke="#000" stroke-width="2" fill="#c1e4f7"/><path d="M385.3 924.83h84.4v103.03h-84.4z" stroke="#000" stroke-width="2" fill="#3aa6dd"/><use xlink:href="#J" transform="matrix(1,0,0,1,390.29419479621066,929.8264730985582) translate(16.549999999999997 29.0875)"/><use xlink:href="#K" transform="matrix(1,0,0,1,390.29419479621066,929.8264730985582) translate(12.549999999999997 50.6875)"/><use xlink:href="#L" transform="matrix(1,0,0,1,390.29419479621066,929.8264730985582) translate(9.024999999999999 72.28750000000001)"/><path d="M499.37 923.48h65.18v103.04h-65.18z" stroke="#000" stroke-width="2" fill="#3aa6dd"/><use xlink:href="#M" transform="matrix(1,0,0,1,504.36826887028474,928.4824179033544) translate(0.02499999999999858 40.8375)"/><use xlink:href="#N" transform="matrix(1,0,0,1,504.36826887028474,928.4824179033544) translate(8.099999999999998 62.4375)"/><path d="M625.9 1004.97l-31.68-28.63 31.67-28.62h51.2v57.25z" stroke="#000" stroke-width="2" fill="#3aa6dd"/><use xlink:href="#O" transform="matrix(6.123233995736766e-17,-1,1,6.123233995736766e-17,594.2210703897481,1004.9668504156527) translate(10.049999999999997 45.1)"/><path d="M471.7 951.42h9.68" stroke="#000" stroke-width="2" fill="none"/><path d="M471.73 952.42h-1.03v-2h1.03z"/><path d="M495.14 950.2l-13.8 5.88-.82-9.23z" stroke="#000" stroke-width="2"/><path d="M471.7 981.85h9.47" stroke="#000" stroke-width="2" fill="none"/><path d="M471.73 982.85h-1.03v-2h1.03z"/><path d="M495.14 980.8l-13.87 5.7-.7-9.25z" stroke="#000" stroke-width="2"/><path d="M471.7 1010.3h9.28" stroke="#000" stroke-width="2" fill="none"/><path d="M471.73 1011.3h-1.03v-2h1.03z"/><path d="M495.14 1009.4l-13.94 5.54-.6-9.25z" stroke="#000" stroke-width="2"/><path d="M566.55 975h9.02" stroke="#000" stroke-width="2" fill="none"/><path d="M566.58 976h-1.03v-2h1.03z"/><path d="M589.5 976.1l-14.58 3.5.72-9.24z" stroke="#000" stroke-width="2"/><path d="M706.78 924.83h65.2v103.03h-65.2z" stroke="#000" stroke-width="2" fill="#3aa6dd"/><use xlink:href="#P" transform="matrix(1,0,0,1,711.7811059823221,929.8264730985579) translate(3.099999999999998 40.8375)"/><use xlink:href="#N" transform="matrix(1,0,0,1,711.7811059823221,929.8264730985579) translate(8.099999999999998 62.4375)"/><path d="M679.1 976.34h8.18" stroke="#000" stroke-width="2" fill="none"/><path d="M679.14 977.34h-1.03v-2h1.04z"/><path d="M702.54 976.34l-14.26 4.64v-9.27z" stroke="#000" stroke-width="2"/><path d="M469.7 856.14h176.33v34.34H469.7z" stroke="#000" stroke-width="2" fill="#3aa6dd"/><use xlink:href="#Q" transform="matrix(1,0,0,1,474.7006525360066,861.1363636363641) translate(24.574999999999996 15.9625)"/><use xlink:href="#R" transform="matrix(1,0,0,1,474.7006525360066,861.1363636363641) translate(59.525 15.9625)"/><path d="M467.7 873.3h-40.2v32.02" stroke="#000" stroke-width="2" fill="none"/><path d="M468.7 874.3h-1.02v-2h1.02z"/><path d="M427.5 920.6l-4.64-14.28h9.27z" stroke="#000" stroke-width="2"/><path d="M530.44 892.48v11.7" stroke="#000" stroke-width="2" fill="none"/><path d="M531.44 892.5h-2v-1.02h2z"/><path d="M530.62 919.25l-4.8-14.22 9.27-.1z" stroke="#000" stroke-width="2"/><path d="M604.68 892.48v26.62h31v9.12" stroke="#000" stroke-width="2" fill="none"/><path d="M605.68 892.5h-2v-1.02h2z"/><path d="M635.67 943.5l-4.64-14.28h9.27z" stroke="#000" stroke-width="2"/><path d="M648.03 873.3h91.34v32.02" stroke="#000" stroke-width="2" fill="none"/><path d="M648.06 874.3h-1.03v-2h1.03z"/><path d="M739.37 920.6l-4.63-14.28H744z" stroke="#000" stroke-width="2"/><path d="M478.13 1096.55H608.5v59.17H478.13z" stroke="#000" stroke-width="2" fill="#3aa6dd"/><g><use xlink:href="#S" transform="matrix(1,0,0,1,483.1345973218941,1101.5517467540435) translate(40.05 30.025)"/></g><path d="M739.37 1029.86v32.35H543.32v14.85" stroke="#000" stroke-width="2" fill="none"/><path d="M740.37 1029.9h-2v-1.04h2z"/><path d="M543.32 1092.32l-4.64-14.27h9.28z" stroke="#000" stroke-width="2"/><path d="M641.6 1096.55h130.37v59.17H641.6z" stroke="#000" stroke-width="2" fill="#3aa6dd"/><g><use xlink:href="#T" transform="matrix(1,0,0,1,646.5959207971371,1101.5517467540435) translate(14.349999999999994 30.025)"/><use xlink:href="#U" transform="matrix(1,0,0,1,646.5959207971371,1101.5517467540435) translate(82.65 30.025)"/></g><path d="M610.5 1126.14h11.6" stroke="#000" stroke-width="2" fill="none"/><path d="M610.53 1127.14h-1.03v-2h1.03z"/><path d="M637.36 1126.14l-14.27 4.63v-9.27z" stroke="#000" stroke-width="2"/><path d="M456.4 788.44h244.45v56.14H456.4z" stroke="#000" stroke-opacity="0" stroke-width="2" fill-opacity="0"/><g><use xlink:href="#V" transform="matrix(1,0,0,1,461.40802075963677,793.443446088795) translate(33.11728395061729 17.77777777777778)"/><use xlink:href="#W" transform="matrix(1,0,0,1,461.40802075963677,793.443446088795) translate(136.6358024691358 17.77777777777778)"/><use xlink:href="#X" transform="matrix(1,0,0,1,461.40802075963677,793.443446088795) translate(150.15432098765433 17.77777777777778)"/><use xlink:href="#Y" transform="matrix(1,0,0,1,461.40802075963677,793.443446088795) translate(40.4320987654321 44.44444444444444)"/></g><path d="M1572.92 800c16.57 0 30 13.43 30 30v28.37c0 16.57-13.43 30-30 30H1090c-16.57 0-30-13.43-30-30V830c0-16.57 13.43-30 30-30z" stroke="#000" stroke-width="2" fill="#a3d977"/><path d="M1231.5 811.05h210.16v66.28H1231.5z" stroke="#000" stroke-opacity="0" stroke-width="2" fill="#fff" fill-opacity="0"/><g><use xlink:href="#Z" transform="matrix(1,0,0,1,1236.501342099856,816.046511627907) translate(6.25 33.8125)"/><use xlink:href="#aa" transform="matrix(1,0,0,1,1236.501342099856,816.046511627907) translate(88.19444444444444 33.8125)"/></g><defs><path d="M186 0v-106H76V0H24v-248h52v99h110v-99h50V0h-50" id="ab"/><path d="M24 0v-248h195v40H76v63h132v40H76v65h150V0H24" id="ac"/><path d="M24 0v-248h52v208h133V0H24" id="ad"/><path d="M136-208V0H84v-208H4v-40h212v40h-80" id="ae"/><path d="M67-125c0 53 21 87 73 88 37 1 54-22 65-47l45 17C233-25 199 4 140 4 58 4 20-42 15-125 8-235 124-281 211-232c18 10 29 29 36 50l-46 12c-8-25-30-41-62-41-52 0-71 34-72 86" id="af"/><g id="a"><use transform="matrix(0.05,0,0,0.05,0,0)" xlink:href="#ab"/><use transform="matrix(0.05,0,0,0.05,12.950000000000001,0)" xlink:href="#ac"/><use transform="matrix(0.05,0,0,0.05,24.950000000000003,0)" xlink:href="#ad"/><use transform="matrix(0.05,0,0,0.05,34.550000000000004,0)" xlink:href="#ae"/><use transform="matrix(0.05,0,0,0.05,45.50000000000001,0)" xlink:href="#ac"/><use transform="matrix(0.05,0,0,0.05,57.5,0)" xlink:href="#af"/></g><path d="M169-182c-1-43-94-46-97-3 18 66 151 10 154 114 3 95-165 93-204 36-6-8-10-19-12-30l50-8c3 46 112 56 116 5-17-69-150-10-154-114-4-87 153-88 188-35 5 8 8 18 10 28" id="ag"/><path d="M24-248c93 1 206-16 204 79-1 75-69 88-152 82V0H24v-248zm52 121c47 0 100 7 100-41 0-47-54-39-100-39v80" id="ah"/><path d="M128-127c34 4 56 21 59 58 7 91-148 94-172 28-4-9-6-17-7-26l51-5c1 24 16 35 40 36 23 0 39-12 38-36-1-31-31-36-65-34v-40c32 2 59-3 59-33 0-20-13-33-34-33s-33 13-35 32l-50-3c6-44 37-68 86-68 50 0 83 20 83 66 0 35-22 52-53 58" id="ai"/><path d="M182-182c0 78-84 86-111 141h115V0H12c-6-101 99-100 120-180 1-22-12-31-33-32-23 0-32 14-35 34l-49-3c5-45 32-70 84-70 51 0 83 22 83 69" id="aj"/><g id="b"><use transform="matrix(0.05,0,0,0.05,0,0)" xlink:href="#ac"/><use transform="matrix(0.05,0,0,0.05,12,0)" xlink:href="#ag"/><use transform="matrix(0.05,0,0,0.05,24,0)" xlink:href="#ah"/><use transform="matrix(0.05,0,0,0.05,36,0)" xlink:href="#ai"/><use transform="matrix(0.05,0,0,0.05,46,0)" xlink:href="#aj"/></g><path d="M182-130c37 4 62 22 62 59C244 23 116-4 24 0v-248c84 5 203-23 205 63 0 31-19 50-47 55zM76-148c40-3 101 13 101-30 0-44-60-28-101-31v61zm0 110c48-3 116 14 116-37 0-48-69-32-116-35v72" id="ak"/><path d="M110-194c64 0 96 36 96 99 0 64-35 99-97 99-61 0-95-36-95-99 0-62 34-99 96-99zm-1 164c35 0 45-28 45-65 0-40-10-65-43-65-34 0-45 26-45 65 0 36 10 65 43 65" id="al"/><path d="M133-34C117-15 103 5 69 4 32 3 11-16 11-54c-1-60 55-63 116-61 1-26-3-47-28-47-18 1-26 9-28 27l-52-2c7-38 36-58 82-57s74 22 75 68l1 82c-1 14 12 18 25 15v27c-30 8-71 5-69-32zm-48 3c29 0 43-24 42-57-32 0-66-3-65 30 0 17 8 27 23 27" id="am"/><path d="M135-150c-39-12-60 13-60 57V0H25l-1-190h47c2 13-1 29 3 40 6-28 27-53 61-41v41" id="an"/><path d="M88-194c31-1 46 15 58 34l-1-101h50l1 261h-48c-2-10 0-23-3-31C134-8 116 4 84 4 32 4 16-41 15-95c0-56 19-97 73-99zm17 164c33 0 40-30 41-66 1-37-9-64-41-64s-38 30-39 65c0 43 13 65 39 65" id="ao"/><g id="c"><use transform="matrix(0.05,0,0,0.05,0,0)" xlink:href="#ak"/><use transform="matrix(0.05,0,0,0.05,12.950000000000001,0)" xlink:href="#al"/><use transform="matrix(0.05,0,0,0.05,23.900000000000002,0)" xlink:href="#am"/><use transform="matrix(0.05,0,0,0.05,33.900000000000006,0)" xlink:href="#an"/><use transform="matrix(0.05,0,0,0.05,40.900000000000006,0)" xlink:href="#ao"/></g><path d="M185-48c-13 30-37 53-82 52C43 2 14-33 14-96s30-98 90-98c62 0 83 45 84 108H66c0 31 8 55 39 56 18 0 30-7 34-22zm-45-69c5-46-57-63-70-21-2 6-4 13-4 21h74" id="ap"/><path d="M25-224v-37h50v37H25zM25 0v-190h50V0H25" id="aq"/><path d="M135-194c53 0 70 44 70 98 0 56-19 98-73 100-31 1-45-17-59-34 3 33 2 69 2 105H25l-1-265h48c2 10 0 23 3 31 11-24 29-35 60-35zM114-30c33 0 39-31 40-66 0-38-9-64-40-64-56 0-55 130 0 130" id="ar"/><path d="M114-157C55-157 80-60 75 0H25v-261h50l-1 109c12-26 28-41 61-42 86-1 58 113 63 194h-50c-7-57 23-157-34-157" id="as"/><path d="M25 0v-261h50V0H25" id="at"/><path d="M137-138c1-29-70-34-71-4 15 46 118 7 119 86 1 83-164 76-172 9l43-7c4 19 20 25 44 25 33 8 57-30 24-41C81-84 22-81 20-136c-2-80 154-74 161-7" id="au"/><g id="d"><use transform="matrix(0.05555555555555555,0,0,0.05555555555555555,0,0)" xlink:href="#ah"/><use transform="matrix(0.05555555555555555,0,0,0.05555555555555555,13.333333333333332,0)" xlink:href="#ap"/><use transform="matrix(0.05555555555555555,0,0,0.05555555555555555,24.444444444444443,0)" xlink:href="#an"/><use transform="matrix(0.05555555555555555,0,0,0.05555555555555555,32.22222222222222,0)" xlink:href="#aq"/><use transform="matrix(0.05555555555555555,0,0,0.05555555555555555,37.77777777777778,0)" xlink:href="#ar"/><use transform="matrix(0.05555555555555555,0,0,0.05555555555555555,49.94444444444444,0)" xlink:href="#as"/><use transform="matrix(0.05555555555555555,0,0,0.05555555555555555,62.11111111111111,0)" xlink:href="#ap"/><use transform="matrix(0.05555555555555555,0,0,0.05555555555555555,73.22222222222221,0)" xlink:href="#an"/><use transform="matrix(0.05555555555555555,0,0,0.05555555555555555,80.99999999999999,0)" xlink:href="#am"/><use transform="matrix(0.05555555555555555,0,0,0.05555555555555555,92.1111111111111,0)" xlink:href="#at"/><use transform="matrix(0.05555555555555555,0,0,0.05555555555555555,97.66666666666666,0)" xlink:href="#au"/></g><path d="M266 0h-40l-56-210L115 0H75L2-248h35L96-30l15-64 43-154h32l59 218 59-218h35" id="av"/><path d="M24-231v-30h32v30H24zM24 0v-190h32V0H24" id="aw"/><path d="M63-220v92h138v28H63V0H30v-248h175v28H63" id="ax"/><g id="e"><use transform="matrix(0.05,0,0,0.05,0,0)" xlink:href="#av"/><use transform="matrix(0.05,0,0,0.05,16.95,0)" xlink:href="#aw"/><use transform="matrix(0.05,0,0,0.05,20.9,0)" xlink:href="#ax"/><use transform="matrix(0.05,0,0,0.05,31.85,0)" xlink:href="#aw"/></g><path d="M232-93c-1 65-40 97-104 97C67 4 28-28 28-90v-158h33c8 89-33 224 67 224 102 0 64-133 71-224h33v155" id="ay"/><path d="M205 0l-28-72H64L36 0H1l101-248h38L239 0h-34zm-38-99l-47-123c-12 45-31 82-46 123h93" id="az"/><path d="M233-177c-1 41-23 64-60 70L243 0h-38l-65-103H63V0H30v-248c88 3 205-21 203 71zM63-129c60-2 137 13 137-47 0-61-80-42-137-45v92" id="aA"/><path d="M127-220V0H93v-220H8v-28h204v28h-85" id="aB"/><g id="f"><use transform="matrix(0.05,0,0,0.05,0,0)" xlink:href="#ay"/><use transform="matrix(0.05,0,0,0.05,12.950000000000001,0)" xlink:href="#az"/><use transform="matrix(0.05,0,0,0.05,24.950000000000003,0)" xlink:href="#aA"/><use transform="matrix(0.05,0,0,0.05,37.550000000000004,0)" xlink:href="#aB"/></g><path d="M33 0v-248h34V0H33" id="aC"/><path d="M101-251c82-7 93 87 43 132L82-64C71-53 59-42 53-27h129V0H18c2-99 128-94 128-182 0-28-16-43-45-43s-46 15-49 41l-32-3c6-41 34-60 81-64" id="aD"/><path d="M212-179c-10-28-35-45-73-45-59 0-87 40-87 99 0 60 29 101 89 101 43 0 62-24 78-52l27 14C228-24 195 4 139 4 59 4 22-46 18-125c-6-104 99-153 187-111 19 9 31 26 39 46" id="aE"/><g id="g"><use transform="matrix(0.05,0,0,0.05,0,0)" xlink:href="#aC"/><use transform="matrix(0.05,0,0,0.05,5,0)" xlink:href="#aD"/><use transform="matrix(0.05,0,0,0.05,15,0)" xlink:href="#aE"/></g><path d="M14-72v-43h91v43H14" id="aF"/><path d="M24 0v-248h52V0H24" id="aG"/><path d="M24-248c120-7 223 5 221 122C244-46 201 0 124 0H24v-248zM76-40c74 7 117-18 117-86 0-67-45-88-117-82v168" id="aH"/><path d="M76-208v77h127v40H76V0H24v-248h183v40H76" id="aI"/><g id="h"><use transform="matrix(0.05555555555555555,0,0,0.05555555555555555,0,0)" xlink:href="#ac"/><use transform="matrix(0.05555555555555555,0,0,0.05555555555555555,13.333333333333332,0)" xlink:href="#ag"/><use transform="matrix(0.05555555555555555,0,0,0.05555555555555555,26.666666666666664,0)" xlink:href="#ah"/><use transform="matrix(0.05555555555555555,0,0,0.05555555555555555,40,0)" xlink:href="#aF"/><use transform="matrix(0.05555555555555555,0,0,0.05555555555555555,46.611111111111114,0)" xlink:href="#aG"/><use transform="matrix(0.05555555555555555,0,0,0.05555555555555555,52.16666666666667,0)" xlink:href="#aH"/><use transform="matrix(0.05555555555555555,0,0,0.05555555555555555,66.55555555555556,0)" xlink:href="#aI"/></g><path d="M195 0l-88-114-31 24V0H24v-248h52v113l112-113h60L142-143 257 0h-62" id="aJ"/><g id="i"><use transform="matrix(0.05555555555555555,0,0,0.05555555555555555,0,0)" xlink:href="#ag"/><use transform="matrix(0.05555555555555555,0,0,0.05555555555555555,13.333333333333332,0)" xlink:href="#aH"/><use transform="matrix(0.05555555555555555,0,0,0.05555555555555555,27.72222222222222,0)" xlink:href="#aJ"/></g><path d="M115-3C79 11 28 4 28-45v-112H4v-33h27l15-45h31v45h36v33H77v99c-1 23 16 31 38 25v30" id="aK"/><path d="M121-226c-27-7-43 5-38 36h38v33H83V0H34v-157H6v-33h28c-9-59 32-81 87-68v32" id="aL"/><path d="M220-157c-53 9-28 100-34 157h-49v-107c1-27-5-49-29-50C55-147 81-57 75 0H25l-1-190h47c2 12-1 28 3 38 10-53 101-56 108 0 13-22 24-43 59-42 82 1 51 116 57 194h-49v-107c-1-25-5-48-29-50" id="aM"/><path d="M140-251c80 0 125 45 125 126S219 4 139 4C58 4 15-44 15-125s44-126 125-126zm-1 214c52 0 73-35 73-88 0-50-21-86-72-86-52 0-73 35-73 86s22 88 72 88" id="aN"/><g id="j"><use transform="matrix(0.05555555555555555,0,0,0.05555555555555555,0,0)" xlink:href="#ah"/><use transform="matrix(0.05555555555555555,0,0,0.05555555555555555,13.333333333333332,0)" xlink:href="#at"/><use transform="matrix(0.05555555555555555,0,0,0.05555555555555555,18.888888888888886,0)" xlink:href="#am"/><use transform="matrix(0.05555555555555555,0,0,0.05555555555555555,30,0)" xlink:href="#aK"/><use transform="matrix(0.05555555555555555,0,0,0.05555555555555555,36.61111111111111,0)" xlink:href="#aL"/><use transform="matrix(0.05555555555555555,0,0,0.05555555555555555,43.222222222222214,0)" xlink:href="#al"/><use transform="matrix(0.05555555555555555,0,0,0.05555555555555555,55.38888888888888,0)" xlink:href="#an"/><use transform="matrix(0.05555555555555555,0,0,0.05555555555555555,63.166666666666664,0)" xlink:href="#aM"/><use transform="matrix(0.05555555555555555,0,0,0.05555555555555555,80.94444444444443,0)" xlink:href="#aG"/><use transform="matrix(0.05555555555555555,0,0,0.05555555555555555,86.49999999999999,0)" xlink:href="#aN"/></g><path d="M190-63c-7 42-38 67-86 67-59 0-84-38-90-98-12-110 154-137 174-36l-49 2c-2-19-15-32-35-32-30 0-35 28-38 64-6 74 65 87 74 30" id="aO"/><path d="M135-194c87-1 58 113 63 194h-50c-7-57 23-157-34-157-59 0-34 97-39 157H25l-1-190h47c2 12-1 28 3 38 12-26 28-41 61-42" id="aP"/><g id="k"><use transform="matrix(0.05555555555555555,0,0,0.05555555555555555,0,0)" xlink:href="#ae"/><use transform="matrix(0.05555555555555555,0,0,0.05555555555555555,10.666666666666666,0)" xlink:href="#al"/><use transform="matrix(0.05555555555555555,0,0,0.05555555555555555,22.833333333333332,0)" xlink:href="#al"/><use transform="matrix(0.05555555555555555,0,0,0.05555555555555555,35,0)" xlink:href="#at"/><use transform="matrix(0.05555555555555555,0,0,0.05555555555555555,40.55555555555556,0)" xlink:href="#aO"/><use transform="matrix(0.05555555555555555,0,0,0.05555555555555555,51.66666666666667,0)" xlink:href="#as"/><use transform="matrix(0.05555555555555555,0,0,0.05555555555555555,63.83333333333333,0)" xlink:href="#am"/><use transform="matrix(0.05555555555555555,0,0,0.05555555555555555,74.94444444444444,0)" xlink:href="#aq"/><use transform="matrix(0.05555555555555555,0,0,0.05555555555555555,80.5,0)" xlink:href="#aP"/></g><path d="M199 0l-22-63H83L61 0H9l90-248h61L250 0h-51zm-33-102l-36-108c-10 38-24 72-36 108h72" id="aQ"/><path d="M275 0h-61l-44-196L126 0H64L0-248h53L97-49l45-199h58l43 199 44-199h52" id="aR"/><g id="l"><use transform="matrix(0.05,0,0,0.05,0,0)" xlink:href="#aQ"/><use transform="matrix(0.05,0,0,0.05,11.950000000000001,0)" xlink:href="#aR"/><use transform="matrix(0.05,0,0,0.05,28.899999999999995,0)" xlink:href="#ag"/></g><g id="m"><use transform="matrix(0.05,0,0,0.05,0,0)" xlink:href="#aG"/><use transform="matrix(0.05,0,0,0.05,5,0)" xlink:href="#aN"/><use transform="matrix(0.05,0,0,0.05,19,0)" xlink:href="#ae"/></g><path d="M240 0l2-218c-23 76-54 145-80 218h-23L58-218 59 0H30v-248h44l77 211c21-75 51-140 76-211h43V0h-30" id="aS"/><path d="M140-251c81 0 123 46 123 126C263-53 228-8 163 1c7 30 30 48 69 40v23c-55 16-95-15-103-61C56-3 17-48 17-125c0-80 42-126 123-126zm0 227c63 0 89-41 89-101s-29-99-89-99c-61 0-89 39-89 99S79-25 140-24" id="aT"/><path d="M24 0v-261h32V0H24" id="aU"/><path d="M100-194c63 0 86 42 84 106H49c0 40 14 67 53 68 26 1 43-12 49-29l28 8c-11 28-37 45-77 45C44 4 14-33 15-96c1-61 26-98 85-98zm52 81c6-60-76-77-97-28-3 7-6 17-6 28h103" id="aV"/><path d="M117-194c89-4 53 116 60 194h-32v-121c0-31-8-49-39-48C34-167 62-67 57 0H25l-1-190h30c1 10-1 24 2 32 11-22 29-35 61-36" id="aW"/><path d="M59-47c-2 24 18 29 38 22v24C64 9 27 4 27-40v-127H5v-23h24l9-43h21v43h35v23H59v120" id="aX"/><g id="n"><use transform="matrix(0.04320987654320988,0,0,0.04320987654320988,0,0)" xlink:href="#aS"/><use transform="matrix(0.04320987654320988,0,0,0.04320987654320988,12.919753086419755,0)" xlink:href="#aT"/><use transform="matrix(0.04320987654320988,0,0,0.04320987654320988,25.018518518518523,0)" xlink:href="#aB"/><use transform="matrix(0.04320987654320988,0,0,0.04320987654320988,34.48148148148148,0)" xlink:href="#aB"/><use transform="matrix(0.04320987654320988,0,0,0.04320987654320988,43.94444444444444,0)" xlink:href="#aE"/><use transform="matrix(0.04320987654320988,0,0,0.04320987654320988,55.13580246913581,0)" xlink:href="#aU"/><use transform="matrix(0.04320987654320988,0,0,0.04320987654320988,58.54938271604939,0)" xlink:href="#aw"/><use transform="matrix(0.04320987654320988,0,0,0.04320987654320988,61.96296296296297,0)" xlink:href="#aV"/><use transform="matrix(0.04320987654320988,0,0,0.04320987654320988,70.60493827160495,0)" xlink:href="#aW"/><use transform="matrix(0.04320987654320988,0,0,0.04320987654320988,79.24691358024693,0)" xlink:href="#aX"/></g><path d="M114-163C36-179 61-72 57 0H25l-1-190h30c1 12-1 29 2 39 6-27 23-49 58-41v29" id="aY"/><path d="M85-194c31 0 48 13 60 33l-1-100h32l1 261h-30c-2-10 0-23-3-31C134-8 116 4 85 4 32 4 16-35 15-94c0-66 23-100 70-100zm9 24c-40 0-46 34-46 75 0 40 6 74 45 74 42 0 51-32 51-76 0-42-9-74-50-73" id="aZ"/><path d="M84 4C-5 8 30-112 23-190h32v120c0 31 7 50 39 49 72-2 45-101 50-169h31l1 190h-30c-1-10 1-25-2-33-11 22-28 36-60 37" id="ba"/><path d="M100-194c62-1 85 37 85 99 1 63-27 99-86 99S16-35 15-95c0-66 28-99 85-99zM99-20c44 1 53-31 53-75 0-43-8-75-51-75s-53 32-53 75 10 74 51 75" id="bb"/><path d="M153-248C145-148 188 4 80 4 36 3 13-21 6-62l32-5c4 25 16 42 43 43 27 0 39-20 39-49v-147H72v-28h81" id="bc"/><path d="M185-189c-5-48-123-54-124 2 14 75 158 14 163 119 3 78-121 87-175 55-17-10-28-26-33-46l33-7c5 56 141 63 141-1 0-78-155-14-162-118-5-82 145-84 179-34 5 7 8 16 11 25" id="bd"/><path d="M140-251c81 0 123 46 123 126C263-46 219 4 140 4 59 4 17-45 17-125s42-126 123-126zm0 227c63 0 89-41 89-101s-29-99-89-99c-61 0-89 39-89 99S79-25 140-24" id="be"/><path d="M190 0L58-211 59 0H30v-248h39L202-35l-2-213h31V0h-41" id="bf"/><g id="o"><use transform="matrix(0.04320987654320988,0,0,0.04320987654320988,0,0)" xlink:href="#az"/><use transform="matrix(0.04320987654320988,0,0,0.04320987654320988,10.370370370370372,0)" xlink:href="#aY"/><use transform="matrix(0.04320987654320988,0,0,0.04320987654320988,15.512345679012347,0)" xlink:href="#aZ"/><use transform="matrix(0.04320987654320988,0,0,0.04320987654320988,24.154320987654323,0)" xlink:href="#ba"/><use transform="matrix(0.04320987654320988,0,0,0.04320987654320988,32.7962962962963,0)" xlink:href="#aw"/><use transform="matrix(0.04320987654320988,0,0,0.04320987654320988,36.20987654320988,0)" xlink:href="#aW"/><use transform="matrix(0.04320987654320988,0,0,0.04320987654320988,44.851851851851855,0)" xlink:href="#bb"/><use transform="matrix(0.04320987654320988,0,0,0.04320987654320988,53.49382716049383,0)" xlink:href="#bc"/><use transform="matrix(0.04320987654320988,0,0,0.04320987654320988,61.27160493827161,0)" xlink:href="#bd"/><use transform="matrix(0.04320987654320988,0,0,0.04320987654320988,71.64197530864197,0)" xlink:href="#be"/><use transform="matrix(0.04320987654320988,0,0,0.04320987654320988,83.74074074074073,0)" xlink:href="#bf"/></g><path d="M96-169c-40 0-48 33-48 73s9 75 48 75c24 0 41-14 43-38l32 2c-6 37-31 61-74 61-59 0-76-41-82-99-10-93 101-131 147-64 4 7 5 14 7 22l-32 3c-4-21-16-35-41-35" id="bg"/><g id="p"><use transform="matrix(0.04320987654320988,0,0,0.04320987654320988,0,0)" xlink:href="#av"/><use transform="matrix(0.04320987654320988,0,0,0.04320987654320988,14.648148148148149,0)" xlink:href="#aw"/><use transform="matrix(0.04320987654320988,0,0,0.04320987654320988,18.061728395061728,0)" xlink:href="#ax"/><use transform="matrix(0.04320987654320988,0,0,0.04320987654320988,27.52469135802469,0)" xlink:href="#aw"/><use transform="matrix(0.04320987654320988,0,0,0.04320987654320988,30.93827160493827,0)" xlink:href="#aE"/><use transform="matrix(0.04320987654320988,0,0,0.04320987654320988,42.12962962962963,0)" xlink:href="#aU"/><use transform="matrix(0.04320987654320988,0,0,0.04320987654320988,45.543209876543216,0)" xlink:href="#aw"/><use transform="matrix(0.04320987654320988,0,0,0.04320987654320988,48.9567901234568,0)" xlink:href="#aV"/><use transform="matrix(0.04320987654320988,0,0,0.04320987654320988,57.59876543209877,0)" xlink:href="#aW"/><use transform="matrix(0.04320987654320988,0,0,0.04320987654320988,66.24074074074075,0)" xlink:href="#aX"/><use transform="matrix(0.04320987654320988,0,0,0.04320987654320988,70.56172839506173,0)" xlink:href="#bd"/><use transform="matrix(0.04320987654320988,0,0,0.04320987654320988,80.9320987654321,0)" xlink:href="#aV"/><use transform="matrix(0.04320987654320988,0,0,0.04320987654320988,89.57407407407409,0)" xlink:href="#bg"/><use transform="matrix(0.04320987654320988,0,0,0.04320987654320988,97.35185185185185,0)" xlink:href="#ba"/><use transform="matrix(0.04320987654320988,0,0,0.04320987654320988,105.99382716049382,0)" xlink:href="#aY"/><use transform="matrix(0.04320987654320988,0,0,0.04320987654320988,111.1358024691358,0)" xlink:href="#aV"/></g><path d="M135-143c-3-34-86-38-87 0 15 53 115 12 119 90S17 21 10-45l28-5c4 36 97 45 98 0-10-56-113-15-118-90-4-57 82-63 122-42 12 7 21 19 24 35" id="bh"/><g id="q"><use transform="matrix(0.04320987654320988,0,0,0.04320987654320988,0,0)" xlink:href="#bd"/><use transform="matrix(0.04320987654320988,0,0,0.04320987654320988,10.370370370370372,0)" xlink:href="#aV"/><use transform="matrix(0.04320987654320988,0,0,0.04320987654320988,19.01234567901235,0)" xlink:href="#bg"/><use transform="matrix(0.04320987654320988,0,0,0.04320987654320988,26.790123456790127,0)" xlink:href="#aY"/><use transform="matrix(0.04320987654320988,0,0,0.04320987654320988,31.9320987654321,0)" xlink:href="#aV"/><use transform="matrix(0.04320987654320988,0,0,0.04320987654320988,40.574074074074076,0)" xlink:href="#aX"/><use transform="matrix(0.04320987654320988,0,0,0.04320987654320988,44.89506172839506,0)" xlink:href="#bh"/></g><g id="r"><use transform="matrix(0.05,0,0,0.05,0,0)" xlink:href="#aN"/><use transform="matrix(0.05,0,0,0.05,14,0)" xlink:href="#ad"/><use transform="matrix(0.05,0,0,0.05,24.950000000000003,0)" xlink:href="#ac"/><use transform="matrix(0.05,0,0,0.05,36.95,0)" xlink:href="#aH"/></g><path d="M123 10C108 53 80 86 19 72V37c35 8 53-11 59-39L3-190h52l48 148c12-52 28-100 44-148h51" id="bi"/><g id="s"><use transform="matrix(0.05,0,0,0.05,0,0)" xlink:href="#aH"/><use transform="matrix(0.05,0,0,0.05,12.950000000000001,0)" xlink:href="#aq"/><use transform="matrix(0.05,0,0,0.05,17.950000000000003,0)" xlink:href="#au"/><use transform="matrix(0.05,0,0,0.05,27.950000000000003,0)" xlink:href="#ar"/><use transform="matrix(0.05,0,0,0.05,38.900000000000006,0)" xlink:href="#at"/><use transform="matrix(0.05,0,0,0.05,43.900000000000006,0)" xlink:href="#am"/><use transform="matrix(0.05,0,0,0.05,53.900000000000006,0)" xlink:href="#bi"/></g><path d="M160-131c35 5 61 23 61 61C221 17 115-2 30 0v-248c76 3 177-17 177 60 0 33-19 50-47 57zm-97-11c50-1 110 9 110-42 0-47-63-36-110-37v79zm0 115c55-2 124 14 124-45 0-56-70-42-124-44v89" id="bj"/><path d="M141-36C126-15 110 5 73 4 37 3 15-17 15-53c-1-64 63-63 125-63 3-35-9-54-41-54-24 1-41 7-42 31l-33-3c5-37 33-52 76-52 45 0 72 20 72 64v82c-1 20 7 32 28 27v20c-31 9-61-2-59-35zM48-53c0 20 12 33 32 33 41-3 63-29 60-74-43 2-92-5-92 41" id="bk"/><path d="M115-194c55 1 70 41 70 98S169 2 115 4C84 4 66-9 55-30l1 105H24l-1-265h31l2 30c10-21 28-34 59-34zm-8 174c40 0 45-34 45-75s-6-73-45-74c-42 0-51 32-51 76 0 43 10 73 51 73" id="bl"/><g id="t"><use transform="matrix(0.04320987654320988,0,0,0.04320987654320988,0,0)" xlink:href="#bj"/><use transform="matrix(0.04320987654320988,0,0,0.04320987654320988,10.370370370370372,0)" xlink:href="#aw"/><use transform="matrix(0.04320987654320988,0,0,0.04320987654320988,13.783950617283953,0)" xlink:href="#aX"/><use transform="matrix(0.04320987654320988,0,0,0.04320987654320988,18.10493827160494,0)" xlink:href="#aS"/><use transform="matrix(0.04320987654320988,0,0,0.04320987654320988,31.024691358024693,0)" xlink:href="#bk"/><use transform="matrix(0.04320987654320988,0,0,0.04320987654320988,39.66666666666667,0)" xlink:href="#bl"/></g><path d="M210-169c-67 3-38 105-44 169h-31v-121c0-29-5-50-35-48C34-165 62-65 56 0H25l-1-190h30c1 10-1 24 2 32 10-44 99-50 107 0 11-21 27-35 58-36 85-2 47 119 55 194h-31v-121c0-29-5-49-35-48" id="bm"/><path d="M177-190C167-65 218 103 67 71c-23-6-38-20-44-43l32-5c15 47 100 32 89-28v-30C133-14 115 1 83 1 29 1 15-40 15-95c0-56 16-97 71-98 29-1 48 16 59 35 1-10 0-23 2-32h30zM94-22c36 0 50-32 50-73 0-42-14-75-50-75-39 0-46 34-46 75s6 73 46 73" id="bn"/><g id="u"><use transform="matrix(0.04320987654320988,0,0,0.04320987654320988,0,0)" xlink:href="#aC"/><use transform="matrix(0.04320987654320988,0,0,0.04320987654320988,4.320987654320988,0)" xlink:href="#bm"/><use transform="matrix(0.04320987654320988,0,0,0.04320987654320988,17.240740740740744,0)" xlink:href="#bk"/><use transform="matrix(0.04320987654320988,0,0,0.04320987654320988,25.882716049382722,0)" xlink:href="#bn"/><use transform="matrix(0.04320987654320988,0,0,0.04320987654320988,34.5246913580247,0)" xlink:href="#aV"/><use transform="matrix(0.04320987654320988,0,0,0.04320987654320988,43.16666666666667,0)" xlink:href="#bh"/></g><path d="M179-190L93 31C79 59 56 82 12 73V49c39 6 53-20 64-50L1-190h34L92-34l54-156h33" id="bo"/><g id="v"><use transform="matrix(0.04320987654320988,0,0,0.04320987654320988,0,0)" xlink:href="#bj"/><use transform="matrix(0.04320987654320988,0,0,0.04320987654320988,10.370370370370372,0)" xlink:href="#bk"/><use transform="matrix(0.04320987654320988,0,0,0.04320987654320988,19.01234567901235,0)" xlink:href="#aX"/><use transform="matrix(0.04320987654320988,0,0,0.04320987654320988,23.333333333333336,0)" xlink:href="#aX"/><use transform="matrix(0.04320987654320988,0,0,0.04320987654320988,27.654320987654323,0)" xlink:href="#aV"/><use transform="matrix(0.04320987654320988,0,0,0.04320987654320988,36.2962962962963,0)" xlink:href="#aY"/><use transform="matrix(0.04320987654320988,0,0,0.04320987654320988,41.43827160493827,0)" xlink:href="#bo"/></g><g id="w"><use transform="matrix(0.04320987654320988,0,0,0.04320987654320988,0,0)" xlink:href="#aA"/><use transform="matrix(0.04320987654320988,0,0,0.04320987654320988,11.19135802469136,0)" xlink:href="#aV"/><use transform="matrix(0.04320987654320988,0,0,0.04320987654320988,19.833333333333336,0)" xlink:href="#bh"/><use transform="matrix(0.04320987654320988,0,0,0.04320987654320988,27.611111111111114,0)" xlink:href="#bb"/><use transform="matrix(0.04320987654320988,0,0,0.04320987654320988,36.25308641975309,0)" xlink:href="#ba"/><use transform="matrix(0.04320987654320988,0,0,0.04320987654320988,44.89506172839506,0)" xlink:href="#aY"/><use transform="matrix(0.04320987654320988,0,0,0.04320987654320988,50.037037037037045,0)" xlink:href="#bh"/><use transform="matrix(0.04320987654320988,0,0,0.04320987654320988,57.814814814814824,0)" xlink:href="#aV"/><use transform="matrix(0.04320987654320988,0,0,0.04320987654320988,66.4567901234568,0)" xlink:href="#bh"/></g><path d="M30 0v-248h33v221h125V0H30" id="bp"/><path d="M30 0v-248h187v28H63v79h144v27H63v87h162V0H30" id="bq"/><path d="M30-248c118-7 216 8 213 122C240-48 200 0 122 0H30v-248zM63-27c89 8 146-16 146-99s-60-101-146-95v194" id="br"/><g id="x"><use transform="matrix(0.04320987654320988,0,0,0.04320987654320988,0,0)" xlink:href="#be"/><use transform="matrix(0.04320987654320988,0,0,0.04320987654320988,12.098765432098766,0)" xlink:href="#bp"/><use transform="matrix(0.04320987654320988,0,0,0.04320987654320988,20.74074074074074,0)" xlink:href="#bq"/><use transform="matrix(0.04320987654320988,0,0,0.04320987654320988,31.111111111111114,0)" xlink:href="#br"/></g><path d="M108 0H70L1-190h34L89-25l56-165h34" id="bs"/><g id="y"><use transform="matrix(0.04320987654320988,0,0,0.04320987654320988,0,0)" xlink:href="#br"/><use transform="matrix(0.04320987654320988,0,0,0.04320987654320988,11.19135802469136,0)" xlink:href="#aY"/><use transform="matrix(0.04320987654320988,0,0,0.04320987654320988,16.333333333333336,0)" xlink:href="#aw"/><use transform="matrix(0.04320987654320988,0,0,0.04320987654320988,19.74691358024692,0)" xlink:href="#bs"/><use transform="matrix(0.04320987654320988,0,0,0.04320987654320988,27.5246913580247,0)" xlink:href="#aV"/><use transform="matrix(0.04320987654320988,0,0,0.04320987654320988,36.16666666666667,0)" xlink:href="#aY"/></g><g id="z"><use transform="matrix(0.05,0,0,0.05,0,0)" xlink:href="#aQ"/><use transform="matrix(0.05,0,0,0.05,12.950000000000001,0)" xlink:href="#aO"/><use transform="matrix(0.05,0,0,0.05,22.950000000000003,0)" xlink:href="#aO"/><use transform="matrix(0.05,0,0,0.05,32.95,0)" xlink:href="#ap"/><use transform="matrix(0.05,0,0,0.05,42.95,0)" xlink:href="#at"/><use transform="matrix(0.05,0,0,0.05,47.95,0)" xlink:href="#ap"/><use transform="matrix(0.05,0,0,0.05,57.95,0)" xlink:href="#an"/><use transform="matrix(0.05,0,0,0.05,64.95,0)" xlink:href="#al"/><use transform="matrix(0.05,0,0,0.05,75.9,0)" xlink:href="#aM"/><use transform="matrix(0.05,0,0,0.05,91.9,0)" xlink:href="#ap"/><use transform="matrix(0.05,0,0,0.05,101.9,0)" xlink:href="#aP"/><use transform="matrix(0.05,0,0,0.05,112.85000000000001,0)" xlink:href="#aK"/><use transform="matrix(0.05,0,0,0.05,118.80000000000001,0)" xlink:href="#ap"/><use transform="matrix(0.05,0,0,0.05,128.8,0)" xlink:href="#an"/></g><path d="M182 0l-62-99L58 0H3l86-130-79-118h55l55 88 55-88h55l-75 118L237 0h-55" id="bt"/><path d="M139-81c0-46-55-55-73-27H18l9-140h149v37H72l-4 63c44-38 133-4 122 66C201 21 21 35 11-62l49-4c5 18 15 30 39 30 26 0 40-18 40-45" id="bu"/><path d="M52 0c1-96 47-148 87-207H15v-41h169v40c-36 62-79 113-81 208H52" id="bv"/><g id="A"><use transform="matrix(0.05,0,0,0.05,0,0)" xlink:href="#aQ"/><use transform="matrix(0.05,0,0,0.05,12.950000000000001,0)" xlink:href="#aH"/><use transform="matrix(0.05,0,0,0.05,25.900000000000002,0)" xlink:href="#bt"/><use transform="matrix(0.05,0,0,0.05,37.900000000000006,0)" xlink:href="#ad"/><use transform="matrix(0.05,0,0,0.05,48.85000000000001,0)" xlink:href="#ai"/><use transform="matrix(0.05,0,0,0.05,58.85,0)" xlink:href="#bu"/><use transform="matrix(0.05,0,0,0.05,68.85000000000001,0)" xlink:href="#bv"/></g><g id="B"><use transform="matrix(0.04320987654320988,0,0,0.04320987654320988,0,0)" xlink:href="#az"/><use transform="matrix(0.04320987654320988,0,0,0.04320987654320988,10.370370370370372,0)" xlink:href="#bg"/><use transform="matrix(0.04320987654320988,0,0,0.04320987654320988,18.148148148148152,0)" xlink:href="#bg"/><use transform="matrix(0.04320987654320988,0,0,0.04320987654320988,25.925925925925927,0)" xlink:href="#aV"/><use transform="matrix(0.04320987654320988,0,0,0.04320987654320988,34.567901234567906,0)" xlink:href="#aU"/><use transform="matrix(0.04320987654320988,0,0,0.04320987654320988,37.98148148148149,0)" xlink:href="#aV"/><use transform="matrix(0.04320987654320988,0,0,0.04320987654320988,46.62345679012346,0)" xlink:href="#aY"/><use transform="matrix(0.04320987654320988,0,0,0.04320987654320988,51.76543209876544,0)" xlink:href="#bb"/><use transform="matrix(0.04320987654320988,0,0,0.04320987654320988,60.40740740740741,0)" xlink:href="#bm"/><use transform="matrix(0.04320987654320988,0,0,0.04320987654320988,73.32716049382717,0)" xlink:href="#aV"/><use transform="matrix(0.04320987654320988,0,0,0.04320987654320988,81.96913580246914,0)" xlink:href="#aX"/><use transform="matrix(0.04320987654320988,0,0,0.04320987654320988,86.29012345679013,0)" xlink:href="#aV"/><use transform="matrix(0.04320987654320988,0,0,0.04320987654320988,94.93209876543212,0)" xlink:href="#aY"/></g><g id="C"><use transform="matrix(0.04320987654320988,0,0,0.04320987654320988,0,0)" xlink:href="#az"/><use transform="matrix(0.04320987654320988,0,0,0.04320987654320988,10.370370370370372,0)" xlink:href="#bl"/><use transform="matrix(0.04320987654320988,0,0,0.04320987654320988,19.01234567901235,0)" xlink:href="#bl"/><use transform="matrix(0.04320987654320988,0,0,0.04320987654320988,27.654320987654323,0)" xlink:href="#aU"/><use transform="matrix(0.04320987654320988,0,0,0.04320987654320988,31.067901234567906,0)" xlink:href="#aw"/><use transform="matrix(0.04320987654320988,0,0,0.04320987654320988,34.48148148148149,0)" xlink:href="#bg"/><use transform="matrix(0.04320987654320988,0,0,0.04320987654320988,42.25925925925927,0)" xlink:href="#bk"/><use transform="matrix(0.04320987654320988,0,0,0.04320987654320988,50.90123456790124,0)" xlink:href="#aX"/><use transform="matrix(0.04320987654320988,0,0,0.04320987654320988,55.22222222222223,0)" xlink:href="#aw"/><use transform="matrix(0.04320987654320988,0,0,0.04320987654320988,58.63580246913581,0)" xlink:href="#bb"/><use transform="matrix(0.04320987654320988,0,0,0.04320987654320988,67.27777777777779,0)" xlink:href="#aW"/></g><path d="M195 0l-74-108L45 0H8l94-129-87-119h37l69 98 67-98h37l-84 118L233 0h-38" id="bw"/><path d="M126-127c33 6 58 20 58 59 0 88-139 92-164 29-3-8-5-16-6-25l32-3c6 27 21 44 54 44 32 0 52-15 52-46 0-38-36-46-79-43v-28c39 1 72-4 72-42 0-27-17-43-46-43-28 0-47 15-49 41l-32-3c6-42 35-63 81-64 48-1 79 21 79 65 0 36-21 52-52 59" id="bx"/><path d="M54-142c48-35 137-8 131 61C196 18 31 33 14-55l32-4c7 23 22 37 52 37 35-1 51-22 54-58 4-55-73-65-99-34H22l8-134h141v27H59" id="by"/><path d="M64 0c3-98 48-159 88-221H18v-27h164v26C143-157 98-101 97 0H64" id="bz"/><g id="D"><use transform="matrix(0.04320987654320988,0,0,0.04320987654320988,0,0)" xlink:href="#az"/><use transform="matrix(0.04320987654320988,0,0,0.04320987654320988,10.370370370370372,0)" xlink:href="#br"/><use transform="matrix(0.04320987654320988,0,0,0.04320987654320988,21.56172839506173,0)" xlink:href="#bw"/><use transform="matrix(0.04320987654320988,0,0,0.04320987654320988,31.9320987654321,0)" xlink:href="#bp"/><use transform="matrix(0.04320987654320988,0,0,0.04320987654320988,40.574074074074076,0)" xlink:href="#bx"/><use transform="matrix(0.04320987654320988,0,0,0.04320987654320988,49.21604938271606,0)" xlink:href="#by"/><use transform="matrix(0.04320987654320988,0,0,0.04320987654320988,57.85802469135802,0)" xlink:href="#bz"/></g><g id="E"><use transform="matrix(0.05555555555555555,0,0,0.05555555555555555,0,0)" xlink:href="#aQ"/><use transform="matrix(0.05555555555555555,0,0,0.05555555555555555,14.388888888888888,0)" xlink:href="#ar"/><use transform="matrix(0.05555555555555555,0,0,0.05555555555555555,26.555555555555554,0)" xlink:href="#ar"/><use transform="matrix(0.05555555555555555,0,0,0.05555555555555555,38.72222222222222,0)" xlink:href="#aq"/><use transform="matrix(0.05555555555555555,0,0,0.05555555555555555,44.27777777777778,0)" xlink:href="#aO"/><use transform="matrix(0.05555555555555555,0,0,0.05555555555555555,55.388888888888886,0)" xlink:href="#am"/><use transform="matrix(0.05555555555555555,0,0,0.05555555555555555,66.5,0)" xlink:href="#aK"/><use transform="matrix(0.05555555555555555,0,0,0.05555555555555555,73.11111111111111,0)" xlink:href="#aq"/><use transform="matrix(0.05555555555555555,0,0,0.05555555555555555,78.66666666666667,0)" xlink:href="#al"/><use transform="matrix(0.05555555555555555,0,0,0.05555555555555555,90.83333333333334,0)" xlink:href="#aP"/></g><path fill="#666" d="M30 0v-248h187v28H63v79h144v27H63v87h162V0H30" id="bA"/><path fill="#666" d="M85-194c31 0 48 13 60 33l-1-100h32l1 261h-30c-2-10 0-23-3-31C134-8 116 4 85 4 32 4 16-35 15-94c0-66 23-100 70-100zm9 24c-40 0-46 34-46 75 0 40 6 74 45 74 42 0 51-32 51-76 0-42-9-74-50-73" id="bB"/><path fill="#666" d="M177-190C167-65 218 103 67 71c-23-6-38-20-44-43l32-5c15 47 100 32 89-28v-30C133-14 115 1 83 1 29 1 15-40 15-95c0-56 16-97 71-98 29-1 48 16 59 35 1-10 0-23 2-32h30zM94-22c36 0 50-32 50-73 0-42-14-75-50-75-39 0-46 34-46 75s6 73 46 73" id="bC"/><path fill="#666" d="M100-194c63 0 86 42 84 106H49c0 40 14 67 53 68 26 1 43-12 49-29l28 8c-11 28-37 45-77 45C44 4 14-33 15-96c1-61 26-98 85-98zm52 81c6-60-76-77-97-28-3 7-6 17-6 28h103" id="bD"/><g id="F"><use transform="matrix(0.07407407407407408,0,0,0.07407407407407408,0,0)" xlink:href="#bA"/><use transform="matrix(0.07407407407407408,0,0,0.07407407407407408,17.77777777777778,0)" xlink:href="#bB"/><use transform="matrix(0.07407407407407408,0,0,0.07407407407407408,32.592592592592595,0)" xlink:href="#bC"/><use transform="matrix(0.07407407407407408,0,0,0.07407407407407408,47.40740740740741,0)" xlink:href="#bD"/></g><path fill="#666" d="M30-248c118-7 216 8 213 122C240-48 200 0 122 0H30v-248zM63-27c89 8 146-16 146-99s-60-101-146-95v194" id="bE"/><path fill="#666" d="M108 0H70L1-190h34L89-25l56-165h34" id="bF"/><path fill="#666" d="M24-231v-30h32v30H24zM24 0v-190h32V0H24" id="bG"/><path fill="#666" d="M96-169c-40 0-48 33-48 73s9 75 48 75c24 0 41-14 43-38l32 2c-6 37-31 61-74 61-59 0-76-41-82-99-10-93 101-131 147-64 4 7 5 14 7 22l-32 3c-4-21-16-35-41-35" id="bH"/><path fill="#666" d="M0 4l72-265h28L28 4H0" id="bI"/><path fill="#666" d="M33 0v-248h34V0H33" id="bJ"/><path fill="#666" d="M100-194c62-1 85 37 85 99 1 63-27 99-86 99S16-35 15-95c0-66 28-99 85-99zM99-20c44 1 53-31 53-75 0-43-8-75-51-75s-53 32-53 75 10 74 51 75" id="bK"/><path fill="#666" d="M127-220V0H93v-220H8v-28h204v28h-85" id="bL"/><g id="G"><use transform="matrix(0.07407407407407408,0,0,0.07407407407407408,0,0)" xlink:href="#bE"/><use transform="matrix(0.07407407407407408,0,0,0.07407407407407408,19.185185185185187,0)" xlink:href="#bD"/><use transform="matrix(0.07407407407407408,0,0,0.07407407407407408,34,0)" xlink:href="#bF"/><use transform="matrix(0.07407407407407408,0,0,0.07407407407407408,47.33333333333334,0)" xlink:href="#bG"/><use transform="matrix(0.07407407407407408,0,0,0.07407407407407408,53.18518518518519,0)" xlink:href="#bH"/><use transform="matrix(0.07407407407407408,0,0,0.07407407407407408,66.51851851851853,0)" xlink:href="#bD"/><use transform="matrix(0.07407407407407408,0,0,0.07407407407407408,81.33333333333334,0)" xlink:href="#bI"/><use transform="matrix(0.07407407407407408,0,0,0.07407407407407408,88.74074074074075,0)" xlink:href="#bJ"/><use transform="matrix(0.07407407407407408,0,0,0.07407407407407408,96.14814814814814,0)" xlink:href="#bK"/><use transform="matrix(0.07407407407407408,0,0,0.07407407407407408,110.96296296296296,0)" xlink:href="#bL"/></g><path fill="#666" d="M197 0v-115H63V0H30v-248h33v105h134v-105h34V0h-34" id="bM"/><path fill="#666" d="M141-36C126-15 110 5 73 4 37 3 15-17 15-53c-1-64 63-63 125-63 3-35-9-54-41-54-24 1-41 7-42 31l-33-3c5-37 33-52 76-52 45 0 72 20 72 64v82c-1 20 7 32 28 27v20c-31 9-61-2-59-35zM48-53c0 20 12 33 32 33 41-3 63-29 60-74-43 2-92-5-92 41" id="bN"/><path fill="#666" d="M114-163C36-179 61-72 57 0H25l-1-190h30c1 12-1 29 2 39 6-27 23-49 58-41v29" id="bO"/><path fill="#666" d="M206 0h-36l-40-164L89 0H53L-1-190h32L70-26l43-164h34l41 164 42-164h31" id="bP"/><g id="H"><use transform="matrix(0.07407407407407408,0,0,0.07407407407407408,0,0)" xlink:href="#bM"/><use transform="matrix(0.07407407407407408,0,0,0.07407407407407408,19.185185185185187,0)" xlink:href="#bN"/><use transform="matrix(0.07407407407407408,0,0,0.07407407407407408,34,0)" xlink:href="#bO"/><use transform="matrix(0.07407407407407408,0,0,0.07407407407407408,42.814814814814824,0)" xlink:href="#bB"/><use transform="matrix(0.07407407407407408,0,0,0.07407407407407408,57.62962962962964,0)" xlink:href="#bP"/><use transform="matrix(0.07407407407407408,0,0,0.07407407407407408,76.81481481481482,0)" xlink:href="#bN"/><use transform="matrix(0.07407407407407408,0,0,0.07407407407407408,91.62962962962965,0)" xlink:href="#bO"/><use transform="matrix(0.07407407407407408,0,0,0.07407407407407408,100.44444444444446,0)" xlink:href="#bD"/></g><path fill="#666" d="M160-131c35 5 61 23 61 61C221 17 115-2 30 0v-248c76 3 177-17 177 60 0 33-19 50-47 57zm-97-11c50-1 110 9 110-42 0-47-63-36-110-37v79zm0 115c55-2 124 14 124-45 0-56-70-42-124-44v89" id="bQ"/><g id="I"><use transform="matrix(0.07407407407407408,0,0,0.07407407407407408,0,0)" xlink:href="#bQ"/><use transform="matrix(0.07407407407407408,0,0,0.07407407407407408,17.77777777777778,0)" xlink:href="#bK"/><use transform="matrix(0.07407407407407408,0,0,0.07407407407407408,32.592592592592595,0)" xlink:href="#bN"/><use transform="matrix(0.07407407407407408,0,0,0.07407407407407408,47.40740740740741,0)" xlink:href="#bO"/><use transform="matrix(0.07407407407407408,0,0,0.07407407407407408,56.22222222222223,0)" xlink:href="#bB"/></g><g id="J"><use transform="matrix(0.05,0,0,0.05,0,0)" xlink:href="#aS"/><use transform="matrix(0.05,0,0,0.05,14.950000000000001,0)" xlink:href="#bq"/><use transform="matrix(0.05,0,0,0.05,26.950000000000003,0)" xlink:href="#aS"/></g><path d="M16-82v-28h88v28H16" id="bR"/><path d="M141 0L90-78 38 0H4l68-98-65-92h35l48 74 47-74h35l-64 92 68 98h-35" id="bS"/><g id="K"><use transform="matrix(0.05,0,0,0.05,0,0)" xlink:href="#bx"/><use transform="matrix(0.05,0,0,0.05,10,0)" xlink:href="#bR"/><use transform="matrix(0.05,0,0,0.05,15.949999999999998,0)" xlink:href="#az"/><use transform="matrix(0.05,0,0,0.05,27.950000000000003,0)" xlink:href="#bS"/><use transform="matrix(0.05,0,0,0.05,36.95,0)" xlink:href="#aw"/><use transform="matrix(0.05,0,0,0.05,40.900000000000006,0)" xlink:href="#bh"/></g><g id="L"><use transform="matrix(0.05,0,0,0.05,0,0)" xlink:href="#bd"/><use transform="matrix(0.05,0,0,0.05,12,0)" xlink:href="#aV"/><use transform="matrix(0.05,0,0,0.05,22,0)" xlink:href="#aW"/><use transform="matrix(0.05,0,0,0.05,32,0)" xlink:href="#bh"/><use transform="matrix(0.05,0,0,0.05,41,0)" xlink:href="#bb"/><use transform="matrix(0.05,0,0,0.05,51,0)" xlink:href="#aY"/></g><g id="M"><use transform="matrix(0.05,0,0,0.05,0,0)" xlink:href="#az"/><use transform="matrix(0.05,0,0,0.05,12,0)" xlink:href="#aW"/><use transform="matrix(0.05,0,0,0.05,22,0)" xlink:href="#bk"/><use transform="matrix(0.05,0,0,0.05,32,0)" xlink:href="#aU"/><use transform="matrix(0.05,0,0,0.05,35.95,0)" xlink:href="#bb"/><use transform="matrix(0.05,0,0,0.05,45.95,0)" xlink:href="#bn"/></g><g id="N"><use transform="matrix(0.05,0,0,0.05,0,0)" xlink:href="#ax"/><use transform="matrix(0.05,0,0,0.05,10.950000000000001,0)" xlink:href="#aw"/><use transform="matrix(0.05,0,0,0.05,14.9,0)" xlink:href="#aU"/><use transform="matrix(0.05,0,0,0.05,18.85,0)" xlink:href="#aX"/><use transform="matrix(0.05,0,0,0.05,23.85,0)" xlink:href="#aV"/><use transform="matrix(0.05,0,0,0.05,33.85,0)" xlink:href="#aY"/></g><g id="O"><use transform="matrix(0.05,0,0,0.05,0,0)" xlink:href="#az"/><use transform="matrix(0.05,0,0,0.05,12,0)" xlink:href="#br"/><use transform="matrix(0.05,0,0,0.05,24.950000000000003,0)" xlink:href="#aE"/></g><g id="P"><use transform="matrix(0.05,0,0,0.05,0,0)" xlink:href="#br"/><use transform="matrix(0.05,0,0,0.05,12.950000000000001,0)" xlink:href="#aw"/><use transform="matrix(0.05,0,0,0.05,16.900000000000002,0)" xlink:href="#bn"/><use transform="matrix(0.05,0,0,0.05,26.900000000000002,0)" xlink:href="#aw"/><use transform="matrix(0.05,0,0,0.05,30.85,0)" xlink:href="#aX"/><use transform="matrix(0.05,0,0,0.05,35.85,0)" xlink:href="#bk"/><use transform="matrix(0.05,0,0,0.05,45.85,0)" xlink:href="#aU"/></g><path d="M137 0h-34L2-248h35l83 218 83-218h36" id="bT"/><g id="Q"><use transform="matrix(0.05,0,0,0.05,0,0)" xlink:href="#bT"/><use transform="matrix(0.05,0,0,0.05,11,0)" xlink:href="#bb"/><use transform="matrix(0.05,0,0,0.05,21,0)" xlink:href="#aU"/><use transform="matrix(0.05,0,0,0.05,24.95,0)" xlink:href="#aX"/></g><path d="M101-234c-31-9-42 10-38 44h38v23H63V0H32v-167H5v-23h27c-7-52 17-82 69-68v24" id="bU"/><g id="R"><use transform="matrix(0.05,0,0,0.05,0,0)" xlink:href="#aA"/><use transform="matrix(0.05,0,0,0.05,12.950000000000001,0)" xlink:href="#aV"/><use transform="matrix(0.05,0,0,0.05,22.950000000000003,0)" xlink:href="#bU"/><use transform="matrix(0.05,0,0,0.05,27.950000000000003,0)" xlink:href="#aV"/><use transform="matrix(0.05,0,0,0.05,37.95,0)" xlink:href="#aY"/><use transform="matrix(0.05,0,0,0.05,43.900000000000006,0)" xlink:href="#aV"/><use transform="matrix(0.05,0,0,0.05,53.900000000000006,0)" xlink:href="#aW"/><use transform="matrix(0.05,0,0,0.05,63.900000000000006,0)" xlink:href="#bg"/><use transform="matrix(0.05,0,0,0.05,72.9,0)" xlink:href="#aV"/></g><g id="S"><use transform="matrix(0.05,0,0,0.05,0,0)" xlink:href="#ax"/><use transform="matrix(0.05,0,0,0.05,10.950000000000001,0)" xlink:href="#aC"/><use transform="matrix(0.05,0,0,0.05,15.950000000000001,0)" xlink:href="#ax"/><use transform="matrix(0.05,0,0,0.05,26.900000000000002,0)" xlink:href="#be"/></g><g id="T"><use transform="matrix(0.05,0,0,0.05,0,0)" xlink:href="#bd"/><use transform="matrix(0.05,0,0,0.05,12,0)" xlink:href="#bq"/><use transform="matrix(0.05,0,0,0.05,24,0)" xlink:href="#aA"/><use transform="matrix(0.05,0,0,0.05,36.95,0)" xlink:href="#aC"/><use transform="matrix(0.05,0,0,0.05,41.95,0)" xlink:href="#az"/><use transform="matrix(0.05,0,0,0.05,53.95,0)" xlink:href="#bp"/></g><path d="M0 4l72-265h28L28 4H0" id="bV"/><g id="U"><use transform="matrix(0.05,0,0,0.05,0,0)" xlink:href="#aC"/><use transform="matrix(0.05,0,0,0.05,5,0)" xlink:href="#bV"/><use transform="matrix(0.05,0,0,0.05,10,0)" xlink:href="#be"/></g><g id="V"><use transform="matrix(0.06172839506172839,0,0,0.06172839506172839,0,0)" xlink:href="#aQ"/><use transform="matrix(0.06172839506172839,0,0,0.06172839506172839,15.987654320987653,0)" xlink:href="#aH"/><use transform="matrix(0.06172839506172839,0,0,0.06172839506172839,31.975308641975307,0)" xlink:href="#bt"/><use transform="matrix(0.06172839506172839,0,0,0.06172839506172839,46.79012345679012,0)" xlink:href="#ad"/><use transform="matrix(0.06172839506172839,0,0,0.06172839506172839,60.30864197530864,0)" xlink:href="#ai"/><use transform="matrix(0.06172839506172839,0,0,0.06172839506172839,72.65432098765432,0)" xlink:href="#bu"/><use transform="matrix(0.06172839506172839,0,0,0.06172839506172839,85,0)" xlink:href="#bv"/></g><use transform="matrix(0.06172839506172839,0,0,0.06172839506172839,0,0)" xlink:href="#aF" id="W"/><path d="M230 0l2-204L168 0h-37L68-204 70 0H24v-248h70l56 185 57-185h69V0h-46" id="bW"/><g id="X"><use transform="matrix(0.06172839506172839,0,0,0.06172839506172839,0,0)" xlink:href="#bW"/><use transform="matrix(0.06172839506172839,0,0,0.06172839506172839,18.456790123456788,0)" xlink:href="#ac"/><use transform="matrix(0.06172839506172839,0,0,0.06172839506172839,33.2716049382716,0)" xlink:href="#bW"/></g><g id="Y"><use transform="matrix(0.06172839506172839,0,0,0.06172839506172839,0,0)" xlink:href="#aQ"/><use transform="matrix(0.06172839506172839,0,0,0.06172839506172839,15.987654320987653,0)" xlink:href="#aO"/><use transform="matrix(0.06172839506172839,0,0,0.06172839506172839,28.333333333333332,0)" xlink:href="#aO"/><use transform="matrix(0.06172839506172839,0,0,0.06172839506172839,40.67901234567901,0)" xlink:href="#ap"/><use transform="matrix(0.06172839506172839,0,0,0.06172839506172839,53.02469135802469,0)" xlink:href="#at"/><use transform="matrix(0.06172839506172839,0,0,0.06172839506172839,59.19753086419753,0)" xlink:href="#ap"/><use transform="matrix(0.06172839506172839,0,0,0.06172839506172839,71.54320987654322,0)" xlink:href="#an"/><use transform="matrix(0.06172839506172839,0,0,0.06172839506172839,80.18518518518519,0)" xlink:href="#al"/><use transform="matrix(0.06172839506172839,0,0,0.06172839506172839,93.70370370370371,0)" xlink:href="#aM"/><use transform="matrix(0.06172839506172839,0,0,0.06172839506172839,113.4567901234568,0)" xlink:href="#ap"/><use transform="matrix(0.06172839506172839,0,0,0.06172839506172839,125.80246913580248,0)" xlink:href="#aK"/><use transform="matrix(0.06172839506172839,0,0,0.06172839506172839,133.14814814814815,0)" xlink:href="#ap"/><use transform="matrix(0.06172839506172839,0,0,0.06172839506172839,145.49382716049382,0)" xlink:href="#an"/></g><path d="M85 4C-2 5 27-109 22-190h50c7 57-23 150 33 157 60-5 35-97 40-157h50l1 190h-47c-2-12 1-28-3-38-12 25-28 42-61 42" id="bX"/><g id="Z"><use transform="matrix(0.05555555555555555,0,0,0.05555555555555555,0,0)" xlink:href="#aQ"/><use transform="matrix(0.05555555555555555,0,0,0.05555555555555555,14.388888888888888,0)" xlink:href="#an"/><use transform="matrix(0.05555555555555555,0,0,0.05555555555555555,22.166666666666664,0)" xlink:href="#ao"/><use transform="matrix(0.05555555555555555,0,0,0.05555555555555555,34.33333333333333,0)" xlink:href="#bX"/><use transform="matrix(0.05555555555555555,0,0,0.05555555555555555,46.49999999999999,0)" xlink:href="#aq"/><use transform="matrix(0.05555555555555555,0,0,0.05555555555555555,52.05555555555555,0)" xlink:href="#aP"/><use transform="matrix(0.05555555555555555,0,0,0.05555555555555555,64.22222222222221,0)" xlink:href="#al"/></g><path d="M231 0h-52l-39-155L100 0H48L-1-190h46L77-45c9-52 24-97 36-145h53l37 145 32-145h46" id="bY"/><path d="M147 0L96-86 75-71V0H25v-261h50v150l67-79h53l-66 74L201 0h-54" id="bZ"/><g id="aa"><use transform="matrix(0.05555555555555555,0,0,0.05555555555555555,0,0)" xlink:href="#aI"/><use transform="matrix(0.05555555555555555,0,0,0.05555555555555555,12.166666666666666,0)" xlink:href="#an"/><use transform="matrix(0.05555555555555555,0,0,0.05555555555555555,19.944444444444443,0)" xlink:href="#am"/><use transform="matrix(0.05555555555555555,0,0,0.05555555555555555,31.055555555555554,0)" xlink:href="#aM"/><use transform="matrix(0.05555555555555555,0,0,0.05555555555555555,48.83333333333333,0)" xlink:href="#ap"/><use transform="matrix(0.05555555555555555,0,0,0.05555555555555555,59.94444444444444,0)" xlink:href="#bY"/><use transform="matrix(0.05555555555555555,0,0,0.05555555555555555,75.5,0)" xlink:href="#al"/><use transform="matrix(0.05555555555555555,0,0,0.05555555555555555,87.66666666666667,0)" xlink:href="#an"/><use transform="matrix(0.05555555555555555,0,0,0.05555555555555555,95.44444444444444,0)" xlink:href="#bZ"/></g></defs></g></svg>